<mxfile host="app.diagrams.net" agent="Mozilla/5.0 (Windows NT 10.0; Win64; x64) AppleWebKit/537.36 (KHTML, like Gecko) Chrome/134.0.0.0 Safari/537.36" version="26.1.1">
  <diagram name="Page-1" id="nAeYD9zv7o3SUyDJOgNx">
    <mxGraphModel dx="746" dy="826" grid="1" gridSize="10" guides="1" tooltips="1" connect="1" arrows="1" fold="1" page="1" pageScale="1" pageWidth="850" pageHeight="1100" math="0" shadow="0">
      <root>
        <mxCell id="0" />
        <mxCell id="1" parent="0" />
        <mxCell id="De-4vPb_fdGooCqSFU7z-10" value="" style="rounded=1;whiteSpace=wrap;html=1;" vertex="1" parent="1">
          <mxGeometry x="290" y="130" width="400" height="450" as="geometry" />
        </mxCell>
        <mxCell id="De-4vPb_fdGooCqSFU7z-45" style="edgeStyle=orthogonalEdgeStyle;rounded=0;orthogonalLoop=1;jettySize=auto;html=1;exitX=1;exitY=0.3333333333333333;exitDx=0;exitDy=0;exitPerimeter=0;strokeColor=#0000FF;" edge="1" parent="1" source="De-4vPb_fdGooCqSFU7z-12" target="De-4vPb_fdGooCqSFU7z-14">
          <mxGeometry relative="1" as="geometry" />
        </mxCell>
        <mxCell id="De-4vPb_fdGooCqSFU7z-46" style="edgeStyle=orthogonalEdgeStyle;rounded=0;orthogonalLoop=1;jettySize=auto;html=1;exitX=1;exitY=0.3333333333333333;exitDx=0;exitDy=0;exitPerimeter=0;entryX=0;entryY=0;entryDx=0;entryDy=0;strokeColor=#0000FF;" edge="1" parent="1" source="De-4vPb_fdGooCqSFU7z-12" target="De-4vPb_fdGooCqSFU7z-17">
          <mxGeometry relative="1" as="geometry">
            <Array as="points">
              <mxPoint x="200" y="260" />
              <mxPoint x="455" y="260" />
            </Array>
          </mxGeometry>
        </mxCell>
        <mxCell id="De-4vPb_fdGooCqSFU7z-12" value="client&lt;div&gt;&lt;br&gt;&lt;/div&gt;" style="shape=umlActor;verticalLabelPosition=bottom;verticalAlign=top;html=1;outlineConnect=0;" vertex="1" parent="1">
          <mxGeometry x="170" y="210" width="30" height="60" as="geometry" />
        </mxCell>
        <mxCell id="De-4vPb_fdGooCqSFU7z-14" value="Read News" style="ellipse;whiteSpace=wrap;html=1;" vertex="1" parent="1">
          <mxGeometry x="340" y="190" width="100" height="60" as="geometry" />
        </mxCell>
        <mxCell id="De-4vPb_fdGooCqSFU7z-16" value="Write News&lt;div&gt;Article&lt;/div&gt;" style="ellipse;whiteSpace=wrap;html=1;" vertex="1" parent="1">
          <mxGeometry x="470" y="200" width="100" height="60" as="geometry" />
        </mxCell>
        <mxCell id="De-4vPb_fdGooCqSFU7z-17" value="Comments" style="ellipse;whiteSpace=wrap;html=1;" vertex="1" parent="1">
          <mxGeometry x="440" y="310" width="100" height="60" as="geometry" />
        </mxCell>
        <mxCell id="De-4vPb_fdGooCqSFU7z-19" value="Modify accounts&lt;div&gt;(ban)&lt;/div&gt;" style="ellipse;whiteSpace=wrap;html=1;" vertex="1" parent="1">
          <mxGeometry x="360" y="390" width="100" height="60" as="geometry" />
        </mxCell>
        <mxCell id="De-4vPb_fdGooCqSFU7z-22" value="Author Info" style="ellipse;whiteSpace=wrap;html=1;" vertex="1" parent="1">
          <mxGeometry x="560" y="280" width="100" height="60" as="geometry" />
        </mxCell>
        <mxCell id="De-4vPb_fdGooCqSFU7z-38" style="edgeStyle=orthogonalEdgeStyle;rounded=0;orthogonalLoop=1;jettySize=auto;html=1;exitX=0;exitY=0.3333333333333333;exitDx=0;exitDy=0;exitPerimeter=0;entryX=1;entryY=0.5;entryDx=0;entryDy=0;strokeColor=#FF0080;" edge="1" parent="1" source="De-4vPb_fdGooCqSFU7z-24" target="De-4vPb_fdGooCqSFU7z-16">
          <mxGeometry relative="1" as="geometry" />
        </mxCell>
        <mxCell id="De-4vPb_fdGooCqSFU7z-41" style="edgeStyle=orthogonalEdgeStyle;rounded=0;orthogonalLoop=1;jettySize=auto;html=1;exitX=0.5;exitY=0;exitDx=0;exitDy=0;exitPerimeter=0;entryX=1;entryY=0;entryDx=0;entryDy=0;fillColor=#FF0080;strokeColor=#FF3399;" edge="1" parent="1" source="De-4vPb_fdGooCqSFU7z-24" target="De-4vPb_fdGooCqSFU7z-14">
          <mxGeometry relative="1" as="geometry" />
        </mxCell>
        <mxCell id="De-4vPb_fdGooCqSFU7z-42" style="edgeStyle=orthogonalEdgeStyle;rounded=0;orthogonalLoop=1;jettySize=auto;html=1;exitX=0;exitY=0.3333333333333333;exitDx=0;exitDy=0;exitPerimeter=0;entryX=0.5;entryY=0;entryDx=0;entryDy=0;strokeColor=#FF0080;" edge="1" parent="1" source="De-4vPb_fdGooCqSFU7z-24" target="De-4vPb_fdGooCqSFU7z-22">
          <mxGeometry relative="1" as="geometry" />
        </mxCell>
        <mxCell id="De-4vPb_fdGooCqSFU7z-44" style="edgeStyle=orthogonalEdgeStyle;rounded=0;orthogonalLoop=1;jettySize=auto;html=1;exitX=0.5;exitY=0.5;exitDx=0;exitDy=0;exitPerimeter=0;entryX=0.5;entryY=0;entryDx=0;entryDy=0;strokeColor=#FF3399;" edge="1" parent="1" source="De-4vPb_fdGooCqSFU7z-24" target="De-4vPb_fdGooCqSFU7z-17">
          <mxGeometry relative="1" as="geometry">
            <Array as="points">
              <mxPoint x="755" y="270" />
              <mxPoint x="490" y="270" />
            </Array>
          </mxGeometry>
        </mxCell>
        <mxCell id="De-4vPb_fdGooCqSFU7z-24" value="reporter" style="shape=umlActor;verticalLabelPosition=bottom;verticalAlign=top;html=1;outlineConnect=0;" vertex="1" parent="1">
          <mxGeometry x="740" y="220" width="30" height="60" as="geometry" />
        </mxCell>
        <mxCell id="De-4vPb_fdGooCqSFU7z-28" style="edgeStyle=orthogonalEdgeStyle;rounded=0;orthogonalLoop=1;jettySize=auto;html=1;exitX=0;exitY=0.3333333333333333;exitDx=0;exitDy=0;exitPerimeter=0;entryX=1;entryY=0.5;entryDx=0;entryDy=0;" edge="1" parent="1" source="De-4vPb_fdGooCqSFU7z-27" target="De-4vPb_fdGooCqSFU7z-19">
          <mxGeometry relative="1" as="geometry" />
        </mxCell>
        <mxCell id="De-4vPb_fdGooCqSFU7z-33" style="edgeStyle=orthogonalEdgeStyle;rounded=0;orthogonalLoop=1;jettySize=auto;html=1;exitX=0;exitY=0.3333333333333333;exitDx=0;exitDy=0;exitPerimeter=0;" edge="1" parent="1" source="De-4vPb_fdGooCqSFU7z-27" target="De-4vPb_fdGooCqSFU7z-22">
          <mxGeometry relative="1" as="geometry" />
        </mxCell>
        <mxCell id="De-4vPb_fdGooCqSFU7z-34" style="edgeStyle=orthogonalEdgeStyle;rounded=0;orthogonalLoop=1;jettySize=auto;html=1;exitX=0;exitY=0.3333333333333333;exitDx=0;exitDy=0;exitPerimeter=0;entryX=1;entryY=0.5;entryDx=0;entryDy=0;" edge="1" parent="1" source="De-4vPb_fdGooCqSFU7z-27" target="De-4vPb_fdGooCqSFU7z-30">
          <mxGeometry relative="1" as="geometry">
            <Array as="points">
              <mxPoint x="740" y="380" />
              <mxPoint x="660" y="380" />
              <mxPoint x="660" y="460" />
            </Array>
          </mxGeometry>
        </mxCell>
        <mxCell id="De-4vPb_fdGooCqSFU7z-35" style="edgeStyle=orthogonalEdgeStyle;rounded=0;orthogonalLoop=1;jettySize=auto;html=1;exitX=0;exitY=0.3333333333333333;exitDx=0;exitDy=0;exitPerimeter=0;entryX=0.5;entryY=0;entryDx=0;entryDy=0;" edge="1" parent="1" source="De-4vPb_fdGooCqSFU7z-27" target="De-4vPb_fdGooCqSFU7z-14">
          <mxGeometry relative="1" as="geometry">
            <Array as="points">
              <mxPoint x="660" y="370" />
              <mxPoint x="660" y="170" />
              <mxPoint x="390" y="170" />
            </Array>
          </mxGeometry>
        </mxCell>
        <mxCell id="De-4vPb_fdGooCqSFU7z-36" style="edgeStyle=orthogonalEdgeStyle;rounded=0;orthogonalLoop=1;jettySize=auto;html=1;exitX=0;exitY=1;exitDx=0;exitDy=0;exitPerimeter=0;entryX=0;entryY=0.5;entryDx=0;entryDy=0;" edge="1" parent="1" source="De-4vPb_fdGooCqSFU7z-27" target="De-4vPb_fdGooCqSFU7z-31">
          <mxGeometry relative="1" as="geometry">
            <Array as="points">
              <mxPoint x="740" y="500" />
              <mxPoint x="305" y="500" />
              <mxPoint x="305" y="300" />
            </Array>
          </mxGeometry>
        </mxCell>
        <mxCell id="De-4vPb_fdGooCqSFU7z-37" style="edgeStyle=orthogonalEdgeStyle;rounded=0;orthogonalLoop=1;jettySize=auto;html=1;exitX=0;exitY=0.3333333333333333;exitDx=0;exitDy=0;exitPerimeter=0;entryX=1;entryY=1;entryDx=0;entryDy=0;" edge="1" parent="1" source="De-4vPb_fdGooCqSFU7z-27" target="De-4vPb_fdGooCqSFU7z-17">
          <mxGeometry relative="1" as="geometry" />
        </mxCell>
        <mxCell id="De-4vPb_fdGooCqSFU7z-27" value="Admin" style="shape=umlActor;verticalLabelPosition=bottom;verticalAlign=top;html=1;outlineConnect=0;" vertex="1" parent="1">
          <mxGeometry x="740" y="350" width="30" height="60" as="geometry" />
        </mxCell>
        <mxCell id="De-4vPb_fdGooCqSFU7z-30" value="Modify Comments&lt;div&gt;&lt;br&gt;&lt;/div&gt;" style="ellipse;whiteSpace=wrap;html=1;" vertex="1" parent="1">
          <mxGeometry x="480" y="430" width="100" height="60" as="geometry" />
        </mxCell>
        <mxCell id="De-4vPb_fdGooCqSFU7z-31" value="Modify News" style="ellipse;whiteSpace=wrap;html=1;" vertex="1" parent="1">
          <mxGeometry x="325" y="270" width="100" height="60" as="geometry" />
        </mxCell>
        <mxCell id="De-4vPb_fdGooCqSFU7z-43" style="edgeStyle=orthogonalEdgeStyle;rounded=0;orthogonalLoop=1;jettySize=auto;html=1;exitX=0;exitY=0.3333333333333333;exitDx=0;exitDy=0;exitPerimeter=0;entryX=0.91;entryY=0.317;entryDx=0;entryDy=0;entryPerimeter=0;fillColor=#FF3399;strokeColor=#FF3399;" edge="1" parent="1" source="De-4vPb_fdGooCqSFU7z-24" target="De-4vPb_fdGooCqSFU7z-31">
          <mxGeometry relative="1" as="geometry">
            <Array as="points">
              <mxPoint x="570" y="240" />
              <mxPoint x="570" y="289" />
            </Array>
          </mxGeometry>
        </mxCell>
      </root>
    </mxGraphModel>
  </diagram>
</mxfile>
